<?xml version="1.0" encoding="utf-8"?>
<!-- Generator: Adobe Illustrator 27.8.1, SVG Export Plug-In . SVG Version: 6.00 Build 0)  -->
<svg version="1.1" id="Layer_1" xmlns="http://www.w3.org/2000/svg" xmlns:xlink="http://www.w3.org/1999/xlink" x="0px" y="0px"
	 viewBox="0 0 107 45" style="enable-background:new 0 0 107 45;" xml:space="preserve">
<style type="text/css">
	.st0{display:none;}
	.st1{display:inline;fill:url(#SVGID_1_);}
	.st2{display:inline;fill:url(#SVGID_00000022544112136890286890000008542355835317081746_);}
	.st3{display:inline;fill:url(#SVGID_00000019669508628027999750000006085927254545037966_);}
	.st4{display:inline;}
	.st5{fill:url(#SVGID_00000118364393004916269090000003137590192698700706_);}
	.st6{display:inline;fill:url(#SVGID_00000019642962454044916530000012820693241520951472_);}
	.st7{fill:#F1D882;}
	.st8{fill:#369EF1;}
	.st9{display:inline;fill:#F1D882;}
	.st10{display:inline;fill:#369EF1;}
</style>
<g class="st0">
	<linearGradient id="SVGID_1_" gradientUnits="userSpaceOnUse" x1="11.7304" y1="37.312" x2="11.0627" y2="13.5399">
		<stop  offset="7.991684e-08" style="stop-color:#F1D882"/>
		<stop  offset="0.1898" style="stop-color:#EED784"/>
		<stop  offset="0.3384" style="stop-color:#E4D48A"/>
		<stop  offset="0.473" style="stop-color:#D3CF94"/>
		<stop  offset="0.5994" style="stop-color:#BCC8A1"/>
		<stop  offset="0.7201" style="stop-color:#9EBEB3"/>
		<stop  offset="0.8365" style="stop-color:#79B3C9"/>
		<stop  offset="0.9473" style="stop-color:#4DA5E3"/>
		<stop  offset="1" style="stop-color:#369EF1"/>
	</linearGradient>
	<path class="st1" d="M17.72,20.54c0,4.48-2.56,7.4-6.48,7.4c-3.91,0-6.47-2.92-6.47-7.4H0.43c0,6.69,4.27,11.03,10.81,11.03
		c6.41,0,10.82-4.48,10.82-11.03H17.72z M11.24,8.5c-6.4,0-10.81,4.48-10.81,11.02h4.34c0-4.48,2.56-7.4,6.47-7.4
		c3.92,0,6.48,2.92,6.48,7.4h4.34C22.06,12.83,17.79,8.5,11.24,8.5z"/>
	
		<linearGradient id="SVGID_00000063616490110763091190000009232134491187320247_" gradientUnits="userSpaceOnUse" x1="34.6468" y1="35.2091" x2="34.7745" y2="11.7198">
		<stop  offset="7.991684e-08" style="stop-color:#F1D882"/>
		<stop  offset="0.1562" style="stop-color:#EDD784"/>
		<stop  offset="0.3031" style="stop-color:#E2D38B"/>
		<stop  offset="0.4462" style="stop-color:#CFCD96"/>
		<stop  offset="0.5871" style="stop-color:#B4C5A6"/>
		<stop  offset="0.7263" style="stop-color:#92BABB"/>
		<stop  offset="0.8632" style="stop-color:#68ADD3"/>
		<stop  offset="0.9979" style="stop-color:#379EF1"/>
		<stop  offset="1" style="stop-color:#369EF1"/>
	</linearGradient>
	<path style="display:inline;fill:url(#SVGID_00000063616490110763091190000009232134491187320247_);" d="M28.6,8.86h-4.69
		l4.19,10.67h4.43L28.6,8.86z M41.48,19.53l4.19-10.67h-4.48l-3.97,10.67 M36.84,21.18l-1.98,5.31l-1.95-5.31H28.5l3.8,9.65h4.98
		l3.79-9.65"/>
	
		<linearGradient id="SVGID_00000146462792793492617140000014306903920145169578_" gradientUnits="userSpaceOnUse" x1="51.9785" y1="35.3033" x2="52.1061" y2="11.8139">
		<stop  offset="7.991684e-08" style="stop-color:#F1D882"/>
		<stop  offset="0.1562" style="stop-color:#EDD784"/>
		<stop  offset="0.3031" style="stop-color:#E2D38B"/>
		<stop  offset="0.4462" style="stop-color:#CFCD96"/>
		<stop  offset="0.5871" style="stop-color:#B4C5A6"/>
		<stop  offset="0.7263" style="stop-color:#92BABB"/>
		<stop  offset="0.8632" style="stop-color:#68ADD3"/>
		<stop  offset="0.9979" style="stop-color:#379EF1"/>
		<stop  offset="1" style="stop-color:#369EF1"/>
	</linearGradient>
	<path style="display:inline;fill:url(#SVGID_00000146462792793492617140000014306903920145169578_);" d="M54.28,19.53V8.86h-4.27
		v10.67 M50.01,21.18v9.65h4.27v-9.65 M49.8,1.61v4.26h4.7V1.61H49.8z"/>
	<g class="st4">
		
			<linearGradient id="SVGID_00000047743979243116638370000002625136502307789444_" gradientUnits="userSpaceOnUse" x1="64.0248" y1="38.2271" x2="101.0514" y2="38.2271">
			<stop  offset="0" style="stop-color:#F1D882"/>
			<stop  offset="0.2169" style="stop-color:#EED784"/>
			<stop  offset="0.3667" style="stop-color:#E5D489"/>
			<stop  offset="0.4963" style="stop-color:#D6D092"/>
			<stop  offset="0.6144" style="stop-color:#C0C99F"/>
			<stop  offset="0.7247" style="stop-color:#A4C0B0"/>
			<stop  offset="0.8292" style="stop-color:#81B5C4"/>
			<stop  offset="0.9272" style="stop-color:#59A9DC"/>
			<stop  offset="1" style="stop-color:#369EF1"/>
		</linearGradient>
		<path style="fill:url(#SVGID_00000047743979243116638370000002625136502307789444_);" d="M65.39,34.41c0-0.32,0.21-0.21,0.22-0.2
			l0.02,0.01l0.02,0.01l0.04,0.02l0.07,0.04l0.14,0.07l0.28,0.14l0.57,0.26c0.37,0.18,0.73,0.36,1.1,0.52
			c0.74,0.33,1.45,0.68,2.18,0.97c1.43,0.63,2.87,1.15,4.29,1.62c1.44,0.41,2.82,0.85,4.25,1.04c1.4,0.26,2.81,0.41,4.21,0.38
			c1.4,0.06,2.8-0.1,4.2-0.34c1.42-0.19,2.79-0.62,4.22-1.04c2.83-0.92,5.65-2.27,8.72-3.67l0.2,0.22c-2.33,2.24-4.96,4.21-7.91,5.6
			c-2.93,1.41-6.17,2.23-9.45,2.22c-3.27-0.02-6.51-0.86-9.45-2.24c-1.47-0.69-2.88-1.52-4.21-2.45c-0.66-0.47-1.3-0.97-1.92-1.49
			c-0.31-0.26-0.61-0.53-0.91-0.81l-0.44-0.42l-0.22-0.21l-0.11-0.11l-0.05-0.05l-0.02-0.02l-0.01-0.01c0,0-0.01,0,0.01,0
			c0,0.01,0.21,0.12,0.21-0.19L65.39,34.41z"/>
	</g>
</g>
<g class="st0">
	
		<linearGradient id="SVGID_00000040541557398018792800000011933534282216481157_" gradientUnits="userSpaceOnUse" x1="63.9283" y1="38.1676" x2="101.5319" y2="38.1676">
		<stop  offset="0" style="stop-color:#F1D882"/>
		<stop  offset="0.1562" style="stop-color:#EDD784"/>
		<stop  offset="0.3031" style="stop-color:#E2D38B"/>
		<stop  offset="0.4462" style="stop-color:#CFCD96"/>
		<stop  offset="0.5871" style="stop-color:#B4C5A6"/>
		<stop  offset="0.7263" style="stop-color:#92BABB"/>
		<stop  offset="0.8632" style="stop-color:#68ADD3"/>
		<stop  offset="0.9979" style="stop-color:#379EF1"/>
		<stop  offset="1" style="stop-color:#369EF1"/>
	</linearGradient>
	<path style="display:inline;fill:url(#SVGID_00000040541557398018792800000011933534282216481157_);" d="M65.54,34.14
		c2.95,1.62,5.79,2.87,8.63,3.79c2.86,0.84,5.69,1.34,8.55,1.31c1.43,0.03,2.87-0.06,4.29-0.31c1.44-0.16,2.84-0.55,4.28-0.95
		c2.85-0.88,5.68-2.13,8.64-3.75l0.04-0.02c0.07-0.04,0.16-0.01,0.2,0.06c0.03,0.06,0.02,0.12-0.02,0.17
		c-2.19,2.43-4.91,4.37-7.89,5.72c-2.98,1.36-6.26,2.07-9.54,2.08c-1.64-0.02-3.28-0.2-4.88-0.56c-1.6-0.38-3.16-0.89-4.65-1.58
		c-2.97-1.38-5.68-3.32-7.86-5.76c-0.05-0.06-0.05-0.15,0.01-0.21c0.05-0.04,0.11-0.05,0.17-0.02L65.54,34.14z"/>
</g>
<path class="st7" d="M17.63,20.31C17.63,20.31,17.63,20.31,17.63,20.31c0,4.63-2.57,7.63-6.49,7.63c-3.92,0-6.49-3.01-6.49-7.63H0.3
	c0,6.89,4.28,11.37,10.84,11.37c6.42,0,10.84-4.62,10.84-11.37c0,0,0,0,0,0H17.63z"/>
<polygon class="st7" points="34.82,27.06 32.4,20.32 27.82,20.32 32.17,31.68 37.32,31.68 41.67,20.32 37.26,20.32 "/>
<rect x="49.93" y="20.31" class="st7" width="4.42" height="11.37"/>
<path class="st8" d="M4.65,19.41c0-4.62,2.57-7.63,6.49-7.63c3.92,0,6.49,3.01,6.49,7.62h4.35c0-6.89-4.28-11.36-10.84-11.36
	C4.72,8.04,0.3,12.66,0.3,19.41c0,0,0,0,0,0L4.65,19.41C4.65,19.41,4.65,19.41,4.65,19.41z"/>
<polygon class="st8" points="28,8.04 23.13,8.04 27.48,19.41 32.07,19.41 "/>
<polygon class="st8" points="41.71,8.04 37.59,19.41 42.01,19.41 46.35,8.04 "/>
<rect x="49.93" y="8.04" class="st8" width="4.42" height="11.36"/>
<rect x="49.93" y="1.06" class="st8" width="4.42" height="4.13"/>
<path class="st7" d="M77.03,20.74c-0.17,4.21-2.68,6.93-6.46,6.93c-3.91,0-6.47-2.92-6.47-7.4c0-0.01,0-0.03,0-0.04
	c-1.72,0.83-2.71,0.89-4.34,0.16c0.05,6.62,4.3,10.91,10.81,10.91c6.4,0,10.81-4.48,10.81-11.03c0,0,0,0,0-0.01
	C79.94,20.6,78.49,21.52,77.03,20.74z"/>
<path class="st8" d="M64.12,19.33c0.02-4.46,2.57-7.36,6.47-7.36c3.91,0,6.48,2.92,6.48,7.4c0,0.16-0.01,0.31-0.02,0.47
	c1.45,0.78,2.9-0.14,4.36-0.47c0-6.68-4.27-11.02-10.81-11.02c-6.4,0-10.81,4.48-10.81,11.03c0,0.04,0,0.08,0,0.12
	C61.41,20.21,62.4,20.16,64.12,19.33z"/>
<path class="st7" d="M102.21,20.74c-0.17,4.21-2.68,6.93-6.46,6.93c-3.91,0-6.47-2.92-6.47-7.4c0-0.01,0-0.03,0-0.04
	c-1.72,0.83-2.71,0.89-4.34,0.16C85,27.01,89.25,31.3,95.76,31.3c6.4,0,10.81-4.48,10.81-11.03c0,0,0,0,0-0.01
	C105.12,20.6,103.67,21.52,102.21,20.74z"/>
<path class="st8" d="M89.3,19.33c0.02-4.46,2.57-7.36,6.47-7.36c3.91,0,6.48,2.92,6.48,7.4c0,0.16-0.01,0.31-0.02,0.47
	c1.45,0.78,2.9-0.14,4.36-0.47c0-6.68-4.27-11.02-10.81-11.02c-6.4,0-10.81,4.48-10.81,11.03c0,0.04,0,0.08,0,0.12
	C86.59,20.21,87.58,20.16,89.3,19.33z"/>
<g class="st0">
	<path class="st9" d="M77.08,19.8c0.01,0.17,0.02,0.34,0.02,0.51c0,4.62-2.57,7.63-6.49,7.63c-3.77,0-6.29-2.79-6.47-7.11
		c-2.13,0.01-3.55-0.17-4.36-0.32c0.08,6.78,4.33,11.18,10.83,11.18c6.42,0,10.84-4.62,10.84-11.37c0-0.07-0.01-0.14-0.01-0.21
		C80.6,19.96,79.16,19.79,77.08,19.8z"/>
	<path class="st9" d="M89.39,19.8c-0.01,0.17-0.02,0.34-0.02,0.51c0,4.62,2.57,7.63,6.49,7.63c3.77,0,6.29-2.79,6.47-7.11
		c2.08,0.02,3.5-0.14,4.36-0.29c-0.09,6.77-4.34,11.15-10.83,11.15c-6.42,0-10.84-4.62-10.84-11.37c0-0.06,0.01-0.12,0.01-0.18
		C85.83,19.99,87.26,19.8,89.39,19.8z"/>
	<path class="st10" d="M64.12,19.41c0-4.62,2.57-7.63,6.49-7.63c3.77,0,6.28,2.79,6.47,7.11c2.08-0.01,3.51,0.16,4.36,0.31
		c-0.09-6.78-4.34-11.16-10.83-11.16c-6.42,0-10.84,4.62-10.84,11.37c0,0.07,0.01,0.13,0.01,0.19c0.81,0.15,2.23,0.33,4.36,0.32
		C64.13,19.76,64.12,19.59,64.12,19.41z"/>
	<path class="st10" d="M102.33,19.93c0.01-0.17,0.02-0.34,0.02-0.51c0-4.62-2.57-7.63-6.49-7.63c-3.77,0-6.28,2.79-6.47,7.11
		c-2.12,0-3.56,0.19-4.36,0.34c0.07-6.79,4.33-11.19,10.83-11.19c6.42,0,10.84,4.62,10.84,11.37c0,0.08-0.01,0.15-0.01,0.22
		C105.83,19.78,104.41,19.95,102.33,19.93z"/>
</g>
<g>
	<path class="st7" d="M82.43,39.39c0-0.1,0-0.2,0.01-0.29c-1.34-0.02-2.68-0.09-4-0.34c-0.72-0.07-1.43-0.24-2.15-0.39
		c-0.36-0.08-0.7-0.21-1.06-0.3c-0.36-0.08-0.72-0.17-1.08-0.3c-2.86-0.89-5.69-2.21-8.61-3.92l-0.05-0.03
		c-0.05-0.03-0.12-0.03-0.17,0.02c-0.06,0.05-0.07,0.15-0.01,0.21c2.15,2.56,4.87,4.58,7.86,5.97c2.04,0.97,4.23,1.6,6.46,1.92
		C81.28,41.46,82.48,40.68,82.43,39.39z"/>
	<path class="st8" d="M100.16,33.88c-0.04-0.07-0.13-0.09-0.2-0.05l-0.05,0.03c-2.88,1.76-5.72,3.07-8.57,3.95
		c-1.44,0.38-2.84,0.82-4.29,0.96c-1.43,0.25-2.87,0.33-4.32,0.33c-0.1,0-0.2,0-0.3-0.01c-0.01,0.09-0.02,0.19-0.01,0.29
		c0.06,1.29-1.15,2.07-2.79,2.55c1.03,0.15,2.07,0.23,3.1,0.25c3.29-0.05,6.58-0.73,9.57-2.14c3-1.38,5.72-3.4,7.83-6
		C100.19,34.01,100.2,33.94,100.16,33.88z"/>
</g>
</svg>
